<svg width="328" height="290" viewBox="0 0 328 290" fill="none" xmlns="http://www.w3.org/2000/svg">
<path d="M321.927 267.839H296.084V268.033H321.927V267.839Z" fill="#EBEBEB"/>
<path d="M229.324 269.945H222.543V270.14H229.324V269.945Z" fill="#EBEBEB"/>
<path d="M295.304 260.62H280.33V260.814H295.304V260.62Z" fill="#EBEBEB"/>
<path d="M45.5127 261.926H11.8125V262.12H45.5127V261.926Z" fill="#EBEBEB"/>
<path d="M57.405 261.926H52.4658V262.12H57.405V261.926Z" fill="#EBEBEB"/>
<path d="M146.559 265.205H73.4629V265.399H146.559V265.205Z" fill="#EBEBEB"/>
<path d="M156.107 25.2336C144.761 37.7827 139.143 54.8775 140.103 71.7391C141.063 88.6008 147.305 104.748 154.905 119.845C161.561 133.07 169.512 148.067 164.065 161.828C161.022 169.521 154.086 175.217 146.416 178.387C138.745 181.557 130.334 182.474 122.04 182.886C107.901 183.593 93.5518 182.948 79.7955 186.251C66.0392 189.553 52.4936 197.712 47.1721 210.774C40.9065 226.167 48.0226 244.583 60.5695 255.515C73.1241 266.448 89.9625 271.142 106.481 273.465C129.624 276.713 153.337 275.897 176.199 271.072C194.559 267.194 212.622 260.597 227.603 249.338C242.577 238.079 254.265 221.792 257.472 203.376C260.671 184.961 254.46 164.595 239.807 152.924C233.713 148.067 226.363 144.749 221.018 139.085C215.673 133.42 212.958 123.987 217.92 117.988C221.197 114.025 226.722 112.813 231.84 112.199C257.02 109.208 284.915 114.375 305.974 100.303C318.03 92.245 325.832 78.5071 327.549 64.1475C329.266 49.7879 326.152 34.2472 317.07 22.9647C292.312 -7.75147 186.428 -8.30316 156.107 25.2336Z" fill="#E5F7FF"/>
<path d="M165.949 290C249.503 290 317.237 286.062 317.237 281.204C317.237 276.346 249.503 272.408 165.949 272.408C82.3951 272.408 14.6611 276.346 14.6611 281.204C14.6611 286.062 82.3951 290 165.949 290Z" fill="#E5F7FF"/>
<path d="M153.521 157.895L155.471 146.683L159.302 147.794L153.521 157.895Z" fill="#00BDD3"/>
<path d="M154.808 161.478L165.779 158.323L164.257 154.647L154.808 161.478Z" fill="#00BDD3"/>
<path d="M156.759 157.266L163.009 145.494L167.214 148.408L156.759 157.266Z" fill="#00BDD3"/>
<path d="M53.5041 174.92H48.5649C48.3465 174.92 48.1748 174.749 48.1748 174.531C48.1748 174.314 48.3465 174.143 48.5649 174.143H53.5041C53.7226 174.143 53.8942 174.314 53.8942 174.531C53.8942 174.749 53.7226 174.92 53.5041 174.92Z" fill="#00BDD3"/>
<path d="M45.2802 174.92H20.522C20.3035 174.92 20.1318 174.749 20.1318 174.531C20.1318 174.314 20.3035 174.143 20.522 174.143H45.2724C45.4908 174.143 45.6625 174.314 45.6625 174.531C45.6625 174.749 45.4908 174.92 45.2802 174.92Z" fill="#00BDD3"/>
<path d="M133.061 219.88C132.967 219.88 132.873 219.849 132.795 219.779C132.639 219.631 132.624 219.39 132.772 219.227L135.081 216.725C135.23 216.57 135.472 216.562 135.635 216.702C135.791 216.85 135.807 217.09 135.659 217.254L133.349 219.756C133.271 219.841 133.17 219.88 133.061 219.88Z" fill="#00BDD3"/>
<path d="M111.907 239.795C111.767 239.795 111.626 239.717 111.556 239.585C111.463 239.391 111.533 239.158 111.728 239.064C118.961 235.42 130.416 221.791 130.533 221.651C130.673 221.488 130.915 221.465 131.079 221.605C131.243 221.744 131.266 221.985 131.126 222.148C130.65 222.716 119.445 236.034 112.071 239.756C112.032 239.779 111.97 239.795 111.907 239.795Z" fill="#00BDD3"/>
<path d="M168.055 235.539L173.626 230.947L159.597 217.69L153.612 222.78L168.055 235.539Z" fill="#F6B69E"/>
<path d="M178.136 229.183C177.762 228.95 176.997 229.059 176.209 229.277C175.834 229.385 175.444 229.51 175.101 229.634C174.828 229.735 174.578 229.836 174.367 229.921C174.055 230.054 173.829 230.155 173.751 230.193C173.681 230.209 173.634 230.279 173.626 230.357C173.618 230.38 173.634 230.411 173.65 230.434C173.673 230.473 173.712 230.504 173.759 230.512C174.547 230.722 175.358 230.854 176.178 230.916C176.576 230.97 176.989 230.939 177.371 230.831C177.395 230.823 177.41 230.823 177.426 230.815C177.645 230.745 177.863 230.652 178.058 230.535C178.316 230.326 178.456 230.007 178.425 229.673C178.417 229.479 178.316 229.284 178.136 229.183ZM178.058 229.688C178.097 229.914 177.996 230.139 177.808 230.271C177.66 230.395 177.449 230.473 177.176 230.528C176.911 230.582 176.591 230.598 176.224 230.574C175.795 230.559 175.296 230.489 174.742 230.388C174.625 230.364 174.5 230.341 174.375 230.318C175.038 229.999 175.733 229.758 176.451 229.595C176.833 229.51 177.215 229.448 177.606 229.409C177.723 229.409 177.832 229.432 177.933 229.486C178.019 229.533 178.066 229.611 178.058 229.688Z" fill="#00BDD3"/>
<path d="M175.585 226.261C175.226 226.315 174.898 226.533 174.696 226.828C174.633 226.921 174.579 227.015 174.54 227.123C174.071 228.126 174.313 229.641 174.368 229.921C174.376 229.944 174.376 229.952 174.376 229.96C174.383 230.022 174.43 230.076 174.493 230.092C174.524 230.107 174.563 230.115 174.602 230.099C174.625 230.099 174.649 230.084 174.672 230.061C174.805 229.952 174.945 229.804 175.101 229.625C175.328 229.361 175.562 229.043 175.765 228.693C176.248 227.908 176.592 227.022 176.381 226.564C176.295 226.385 176.092 226.175 175.585 226.261ZM176.053 226.719C176.186 227.022 175.928 227.714 175.531 228.398C175.273 228.833 174.977 229.252 174.68 229.563C174.618 229.074 174.555 228.141 174.797 227.45C174.844 227.294 174.914 227.147 175 227.03C175.133 226.844 175.32 226.696 175.538 226.634L175.648 226.618C175.975 226.564 176.038 226.68 176.053 226.719Z" fill="#00BDD3"/>
<path d="M172.901 230.621L165.91 234.133C165.629 234.265 165.496 234.576 165.582 234.864L167.642 241.375C167.868 242.012 168.57 242.346 169.218 242.121C169.257 242.106 169.304 242.09 169.343 242.075C181.32 237.886 184.988 234.918 186.244 234.242C189.81 232.307 187.804 229.79 186.478 230.1C180.509 231.522 178.503 231.157 175.921 230.489C174.54 230.279 173.322 230.411 172.901 230.621Z" fill="#0E1F3D"/>
<path opacity="0.2" d="M159.597 217.697L166.705 223.968L160.713 229.057L153.612 222.787L159.597 217.697Z" fill="black"/>
<path d="M157.388 229.012L166.323 220.807L164.356 217.364L154.025 226.199L157.388 229.012Z" fill="#00BDD3"/>
<path opacity="0.5" d="M157.388 229.012L166.323 220.807L164.356 217.364L154.025 226.199L157.388 229.012Z" fill="white"/>
<path d="M162.952 218.568L161.759 219.593L159.972 221.124L158.903 222.025L155.789 224.691L155.189 225.196C155.189 225.196 142.462 218.055 135.377 211.955C130.524 207.775 130.087 206.22 129.58 206.609C122.737 211.792 102.481 229.71 91.003 239.035C90.6285 239.073 90.2617 239.112 89.8794 239.136C83.7464 239.586 78.9243 238.91 75.179 237.488C75.14 232.531 79.4003 220.953 79.7514 219.834C79.7514 219.834 96.6912 203.066 124.134 188.893C124.407 188.753 124.688 188.644 124.961 188.527C125.32 188.372 125.671 188.224 126.037 188.092C127.473 187.548 128.878 187.214 130.243 187.144C131.468 187.082 132.662 187.3 133.809 187.704C134.457 187.929 135.096 188.209 135.713 188.535C136.259 188.807 136.79 189.126 137.305 189.452C138.155 189.988 138.974 190.587 139.747 191.177C141.495 192.521 154.752 209.531 161.883 217.379C161.883 217.386 161.883 217.386 161.883 217.386C162.258 217.829 162.617 218.218 162.952 218.568Z" fill="#00BDD3"/>
<g opacity="0.1">
<g opacity="0.1">
<g opacity="0.1">
<g opacity="0.1">
<path opacity="0.1" d="M162.952 218.568L161.759 219.593L159.972 221.124L158.903 222.025L155.789 224.691L155.189 225.196C155.189 225.196 142.462 218.055 135.377 211.955C130.524 207.775 130.087 206.22 129.58 206.609C122.737 211.792 102.481 229.71 91.003 239.035C90.6285 239.073 90.2617 239.112 89.8794 239.136C83.7464 239.586 78.9243 238.91 75.179 237.488C75.14 232.531 79.4003 220.953 79.7514 219.834C79.7514 219.834 96.6912 203.066 124.134 188.893C124.407 188.753 124.688 188.644 124.961 188.527C125.32 188.372 125.671 188.224 126.037 188.092C127.473 187.548 128.878 187.214 130.243 187.144C131.468 187.082 132.662 187.3 133.809 187.704C134.457 187.929 135.096 188.209 135.713 188.535C136.259 188.807 136.79 189.126 137.305 189.452C138.155 189.988 138.974 190.587 139.747 191.177C141.495 192.521 154.752 209.531 161.883 217.379C161.883 217.386 161.883 217.386 161.883 217.386C162.258 217.829 162.617 218.218 162.952 218.568Z" fill="black"/>
</g>
</g>
</g>
</g>
<path d="M72.5581 146.988C73.6271 151.829 74.7507 158.892 71.4189 162.21C75.5544 169.468 80.5248 176.22 86.2286 182.336C93.5398 169.678 86.6109 161.853 86.6109 161.853C81.1334 160.687 81.2192 158.488 82.0775 154.696L72.5581 146.988Z" fill="#F6B69E"/>
<path d="M68.0322 162.823C68.438 161.51 69.2729 160.376 70.4043 159.591C71.4967 158.752 82.8575 158.627 85.8147 159.591C87.5392 160.135 89.0061 161.285 89.9424 162.831L68.0322 162.823Z" fill="#00BDD3"/>
<path d="M120.444 182.093L123.385 180.757L123.534 185.528C123.534 185.528 122.16 186.748 120.654 187.214C119.211 187.657 117.838 186.336 118.196 184.875C118.485 183.663 119.312 182.637 120.444 182.093Z" fill="#F6B69E"/>
<path d="M127.137 182.109L126.981 183.857C126.942 184.401 126.544 184.852 126.014 184.968L123.501 185.528L123.353 180.757L125.905 180.796C126.583 180.788 127.13 181.324 127.137 182C127.137 182.039 127.137 182.07 127.137 182.109Z" fill="#F6B69E"/>
<path d="M83.1385 195.668C87.5548 197.836 92.97 199.08 98.2836 198.186C104.541 197.137 115.442 190.882 120.186 187.292L118.586 184.922C116.222 185.427 96.9025 195.202 84.4181 186.359C82.0929 184.712 72.9637 177.929 69.7333 178.069C64.4976 178.302 64.9502 183.764 67.1974 186.041C69.8425 188.698 79.5258 193.897 83.1385 195.668Z" fill="#F6B69E"/>
<g opacity="0.2">
<path opacity="0.2" d="M126.982 183.857C126.935 184.394 126.545 184.852 126.015 184.969L123.518 185.528V185.536C123.518 185.536 122.145 186.756 120.646 187.222C120.49 187.269 120.334 187.3 120.186 187.3L120.178 187.307C115.434 190.897 104.541 197.145 98.2836 198.194C92.97 199.08 87.5548 197.844 83.1385 195.668C79.5258 193.897 69.8269 188.698 67.1974 186.041C64.9502 183.764 64.4976 178.309 69.7333 178.069C72.9559 177.929 82.0929 184.712 84.4181 186.359C96.3251 194.79 114.443 186.29 118.15 185.046C118.157 184.992 118.165 184.93 118.181 184.875C118.329 184.269 118.602 183.71 118.992 183.228C119.367 182.754 119.866 182.358 120.428 182.086L123.338 180.765L123.37 180.757L125.898 180.788C126.569 180.78 127.123 181.324 127.123 182C127.123 182.031 127.123 182.062 127.123 182.101L126.982 183.857Z" fill="black"/>
<path opacity="0.2" d="M123.376 180.757L123.353 180.765V180.757H123.376Z" fill="black"/>
</g>
<path d="M99.5009 170.633C106.125 185.171 90.7618 189.32 97.7999 213.16L64.404 213.96C64.6303 201.186 69.1871 203.928 63.179 179.91C62.6718 177.874 61.8213 172.039 63.9983 166.724C64.8488 164.657 66.3547 162.901 68.3288 161.837C70.7945 160.508 81.6559 161.549 86.6107 161.875C91.979 161.129 98.5177 168.814 99.5009 170.633Z" fill="#00BDD3"/>
<path opacity="0.5" d="M99.5009 170.633C106.125 185.171 90.7618 189.32 97.7999 213.16L64.404 213.96C64.6303 201.186 69.1871 203.928 63.179 179.91C62.6718 177.874 61.8213 172.039 63.9983 166.724C64.8488 164.657 66.3547 162.901 68.3288 161.837C70.7945 160.508 81.6559 161.549 86.6107 161.875C91.979 161.129 98.5177 168.814 99.5009 170.633Z" fill="white"/>
<path d="M93.1184 141.789C93.0247 142.426 93.2822 142.947 93.6802 143.001C94.0781 143.056 94.4839 142.613 94.5697 141.999C94.6633 141.385 94.4058 140.841 94.0079 140.787C93.61 140.74 93.2042 141.183 93.1184 141.789Z" fill="#0E1F3D"/>
<path d="M93.8276 140.803L95.357 140.593C95.357 140.585 94.4363 141.626 93.8276 140.803Z" fill="#0E1F3D"/>
<path d="M93.2194 142.629C93.2194 142.629 93.8749 145.411 94.8424 146.833C93.9217 147.47 92.5952 146.926 92.5952 146.926L93.2194 142.629Z" fill="#A02724"/>
<path d="M95.3262 137.515C95.4433 137.469 95.5291 137.36 95.5525 137.236C95.5837 137.033 95.4432 136.855 95.2482 136.823C94.0934 136.621 92.9074 136.995 92.0803 137.819C91.932 137.959 91.9242 138.184 92.0568 138.332C92.1973 138.48 92.4236 138.487 92.5718 138.355C92.5874 138.34 92.603 138.324 92.6186 138.301C93.2897 137.663 94.226 137.383 95.1389 137.547C95.2014 137.554 95.2716 137.547 95.3262 137.515Z" fill="#0E1F3D"/>
<path d="M72.9087 136.762C72.2767 144.338 71.8475 147.524 75.0935 151.93C79.978 158.558 89.4662 157.688 92.3454 150.446C94.9515 143.934 95.5523 132.644 88.6079 128.588C83.6609 125.666 77.2782 127.29 74.3366 132.209C73.5095 133.592 73.0179 135.154 72.9087 136.762Z" fill="#F6B69E"/>
<path d="M92.5171 149.987C91.9397 149.505 91.5028 148.868 91.2531 148.138C91.2297 148.06 91.2765 147.975 91.3623 147.943C91.4403 147.92 91.5262 147.967 91.5496 148.052C91.7759 148.682 92.1504 149.233 92.6342 149.676L92.5171 149.987Z" fill="#0E1F3D"/>
<path d="M67.4857 126.908C64.5831 130.824 63.2644 131.842 66.8537 142.262C68.2972 146.45 72.4873 151.998 74.5238 152.504C78.1755 153.42 81.7258 150.864 84.4724 148.292C86.8756 146.039 89.1774 143.607 90.6366 140.662C92.0957 137.717 92.6341 134.189 91.4324 131.135C90.1216 127.817 85.4945 124.857 82.0301 124.126C77.9571 123.272 69.8968 123.652 67.4857 126.908Z" fill="#0E1F3D"/>
<path d="M90.2375 141.308C90.2375 141.308 91.1503 142.869 89.9956 144.035L90.019 141.953L90.2375 141.308Z" fill="#0E1F3D"/>
<path d="M90.223 141.308C90.223 141.308 90.5585 143.701 88.5454 144.594L89.63 142.007L90.223 141.308Z" fill="#0E1F3D"/>
<path d="M76.8261 151.617C76.8261 151.617 74.6101 152.62 74.93 154.787L76.5452 152.495L76.8261 151.617Z" fill="#0E1F3D"/>
<path d="M76.9122 151.664C76.9122 151.664 75.2268 153.405 76.3348 155.308L76.9824 152.581L76.9122 151.664Z" fill="#0E1F3D"/>
<path d="M93.2737 138.183C94.0618 137.375 94.8655 136.551 95.4429 135.58C96.0281 134.609 96.3792 133.459 96.2076 132.348C95.9813 130.902 94.8889 129.713 93.6171 128.983C92.3452 128.26 90.8861 127.934 89.4504 127.615C88.7481 127.46 87.96 127.312 87.3436 127.685C86.7428 128.043 86.4853 128.796 86.5243 129.488C86.5556 130.18 86.8364 130.832 87.0861 131.477C88.0771 134.003 88.7013 136.598 89.1773 139.255C89.4192 140.6 89.2319 141.485 90.5662 140.973C91.4557 140.623 92.5949 138.882 93.2737 138.183Z" fill="#0E1F3D"/>
<path d="M82.7722 141.921C82.6942 143.677 83.3106 145.387 84.4966 146.684C86.0806 148.402 88.0937 147.275 88.6711 145.146C89.2017 143.234 88.9988 140.041 86.9233 139.124C84.8478 138.199 82.8815 139.784 82.7722 141.921Z" fill="#F6B69E"/>
<path d="M171.271 239.035L177.294 233.183L165.637 218.583L158.349 222.864L171.271 239.035Z" fill="#F6B69E"/>
<path d="M183.443 231.381C182.772 231.147 181.398 231.893 180.361 232.554C180.095 232.717 179.861 232.88 179.658 233.02L179.643 233.028C179.604 233.059 179.572 233.082 179.541 233.106C179.307 233.269 179.136 233.393 179.073 233.44C178.995 233.479 178.964 233.556 178.979 233.634C179.003 233.712 179.073 233.766 179.151 233.774C179.869 233.805 180.587 233.782 181.305 233.704C181.469 233.688 181.625 233.673 181.781 233.649C182.303 233.611 182.803 233.44 183.232 233.152C183.388 233.051 183.536 232.942 183.661 232.818C183.887 232.546 183.965 232.173 183.856 231.831C183.809 231.637 183.653 231.466 183.443 231.381ZM183.489 231.94C183.568 232.165 183.528 232.422 183.365 232.608C183.162 232.857 182.756 233.059 182.179 233.199C181.734 233.308 181.195 233.385 180.563 233.416C180.314 233.424 180.048 233.44 179.775 233.44C179.861 233.37 179.947 233.308 180.041 233.245C180.103 233.199 180.165 233.16 180.228 233.113C181.063 232.531 181.984 232.072 182.959 231.754C183.076 231.722 183.201 231.722 183.326 231.761C183.404 231.785 183.466 231.855 183.489 231.94Z" fill="#00BDD3"/>
<path d="M180.102 228.902C179.735 229.042 179.447 229.337 179.306 229.694C178.815 230.891 179.54 232.733 179.665 233.02C179.665 233.028 179.665 233.028 179.673 233.028C179.673 233.043 179.673 233.051 179.681 233.051C179.712 233.113 179.766 233.16 179.837 233.168C179.876 233.176 179.915 233.168 179.954 233.152C179.977 233.144 180.008 233.121 180.016 233.106C180.024 233.09 180.032 233.09 180.04 233.082C180.149 232.942 180.266 232.764 180.367 232.554C180.945 231.474 181.483 229.671 181.007 229.05C180.867 228.871 180.609 228.7 180.102 228.902ZM179.907 232.577C179.696 231.963 179.322 230.658 179.665 229.85C179.759 229.625 179.923 229.43 180.141 229.314L180.25 229.259C180.586 229.127 180.672 229.244 180.703 229.283C181.038 229.733 180.516 231.575 179.907 232.577Z" fill="#00BDD3"/>
<path opacity="0.2" d="M165.021 217.689L170.514 224.691L163.086 228.809L157.507 221.994L165.021 217.689Z" fill="black"/>
<path d="M64.0996 211.427L63.3271 214.442C63.2101 214.683 63.4988 214.908 63.8811 214.901L98.2757 214.092C98.58 214.077 98.8219 213.929 98.8375 213.743L97.9792 210.58C98.0026 210.378 97.7295 210.207 97.4018 210.215L64.6536 211.171C64.4351 211.148 64.2244 211.249 64.0996 211.427Z" fill="#0E1F3D"/>
<path d="M94.7025 214.449L93.7974 214.543C93.618 214.535 93.4697 214.488 93.4697 214.379L93.4541 210.486C93.4541 210.378 93.6024 210.269 93.7818 210.246L94.6869 210.145C94.8664 210.152 95.0147 210.199 95.0147 210.315L95.0303 214.208C95.0225 214.317 94.882 214.426 94.7025 214.449Z" fill="#00BDD3"/>
<path d="M82.3896 214.605L81.4844 214.698C81.305 214.69 81.1645 214.643 81.1567 214.535L81.1489 210.642C81.1489 210.533 81.2972 210.424 81.4766 210.401L82.374 210.3C82.5534 210.308 82.7017 210.354 82.7017 210.471L82.7173 214.364C82.7173 214.488 82.569 214.581 82.3896 214.605Z" fill="#00BDD3"/>
<path d="M82.3896 214.605L81.4844 214.698C81.305 214.69 81.1645 214.643 81.1567 214.535L81.1489 210.642C81.1489 210.533 81.2972 210.424 81.4766 210.401L82.374 210.3C82.5534 210.308 82.7017 210.354 82.7017 210.471L82.7173 214.364C82.7173 214.488 82.569 214.581 82.3896 214.605Z" fill="#00BDD3"/>
<path d="M169.632 220.822L168.11 221.677L168.103 221.684L165.489 223.153L163.14 224.466L163.132 224.474L160.721 225.826V225.834L159.801 226.354C159.801 226.354 159.59 226.207 159.223 225.935C159.083 225.834 158.919 225.717 158.732 225.577C158.162 225.15 157.358 224.552 156.43 223.813C156.43 223.813 156.43 223.813 156.43 223.806C151.576 219.99 142.939 212.476 140.372 205.654C138.71 207.628 136.72 210.099 134.442 212.834C124.633 224.621 109.379 241.258 91.0503 243.426C90.6758 243.48 90.3091 243.511 89.9267 243.542C83.8016 244.071 78.9716 243.457 75.2107 242.081C65.6991 238.616 63.0462 230.286 63.7016 223.207V223.184C63.7562 219.874 64.4117 213.968 64.4117 213.968L99.1106 214.007C104.003 208.094 113.811 198.832 123.845 192.988C124.079 192.841 124.321 192.701 124.563 192.577C124.86 192.398 125.164 192.242 125.461 192.079C128.722 190.3 131.984 188.925 135.074 188.179C135.76 188.015 136.439 187.876 137.11 187.775C137.812 187.666 138.507 187.604 139.186 187.572V187.58C143.937 187.363 148.065 189.127 150.866 193.851L169.125 220.084L169.632 220.822Z" fill="#00BDD3"/>
<path d="M150.906 184.915L112.563 186.492L113.687 162.195L152.029 160.617L150.906 184.915Z" fill="#00BDD3"/>
<path d="M150.461 186.834L112.673 188.388C111.604 188.435 110.769 187.596 110.823 186.531L111.939 162.389C111.986 161.316 112.899 160.415 113.968 160.368L151.757 158.814C152.826 158.768 153.661 159.599 153.606 160.671L152.49 184.814C152.443 185.886 151.53 186.788 150.461 186.834Z" fill="#0E1F3D"/>
<path d="M150.906 184.915L112.563 186.492L113.687 162.195L152.029 160.617L150.906 184.915Z" fill="#00BDD3"/>
<path opacity="0.9" d="M150.906 184.915L112.563 186.492L113.687 162.195L152.029 160.617L150.906 184.915Z" fill="white"/>
<path opacity="0.1" d="M127.295 159.824L120.959 188.03L123.479 187.929L129.729 159.723L127.295 159.824Z" fill="white"/>
<path opacity="0.1" d="M131.18 159.669L124.844 187.875L129.846 187.665L136.096 159.467L131.18 159.669Z" fill="white"/>
<path d="M138.46 187.137L151.225 186.779C151.444 188.256 150.812 188.807 150 188.831L145.919 188.932L143.196 188.994L138.959 189.11L112.672 189.872L112.461 188.03L138.46 187.137Z" fill="#00BDD3"/>
<path d="M138.46 187.137L151.225 186.779C151.444 188.256 150.812 188.807 150 188.831L145.919 188.932L143.196 188.994L138.959 189.11L106.422 190.105C106.047 190.113 105.704 189.911 105.54 189.569C105.251 188.963 105.681 188.248 106.359 188.225L138.46 187.137Z" fill="#00BDD3"/>
<path opacity="0.2" d="M138.46 187.137L151.225 186.779C151.444 188.256 150.812 188.807 150 188.831L145.919 188.932L143.196 188.994L138.959 189.11L106.422 190.105C106.047 190.113 105.704 189.911 105.54 189.569C105.251 188.963 105.681 188.248 106.359 188.225L138.46 187.137Z" fill="black"/>
<path opacity="0.2" d="M151.226 186.779L151.304 187.292C151.421 188.085 150.812 188.807 150.001 188.831L145.92 188.932L138.343 189.204L138.468 187.137L151.226 186.779Z" fill="black"/>
<path opacity="0.2" d="M85.1046 171.348C85.1046 171.348 83.3021 175.007 88.5066 184.674L90.6835 188.613C91.4014 189.911 96.1767 187.261 97.5968 184.829C97.5968 184.829 88.4754 179.374 85.1046 171.348Z" fill="black"/>
<path d="M129.244 182.613L132.872 181.549L132.287 187.136C132.287 187.136 127.223 190.508 125.467 187.283L126.17 185.481C126.716 184.113 127.839 183.064 129.244 182.613Z" fill="#F6B69E"/>
<path d="M137.039 183.749L136.586 185.761C136.454 186.383 135.923 186.841 135.283 186.896L132.264 187.129L132.849 181.542L135.814 182.008C136.602 182.109 137.164 182.832 137.055 183.617C137.055 183.663 137.047 183.702 137.039 183.749Z" fill="#F6B69E"/>
<path d="M99.0321 192.063C101.56 195.482 105.118 198.334 109.308 199.15C114.24 200.113 123.728 193.166 128.175 188.667C127.949 186.771 128.082 185.746 126.178 185.482C126.178 185.482 121.286 189.056 112.047 191.201C109.067 191.892 107.077 188.854 104.471 184.433C103.175 182.226 98.9775 173.189 97.3936 171.176C94.8577 167.944 87.6245 170.259 90.4959 178.038C91.7053 181.309 96.9644 189.266 99.0321 192.063Z" fill="#F6B69E"/>
<path d="M96.3329 165.885C101.467 170.578 103.964 178.877 103.964 178.877L91.979 186.15C91.979 186.15 83.2165 173.904 84.777 169.638C86.0098 166.327 88.2961 164.152 91.3001 163.965C93.165 163.856 94.9596 164.626 96.3329 165.885Z" fill="#00BDD3"/>
<path d="M68.8518 215.079L67.9467 215.103C67.7672 215.079 67.6268 215.017 67.6346 214.9L67.9623 211.023C67.9779 210.907 68.1262 210.813 68.3056 210.806L69.2107 210.782C69.3902 210.806 69.5307 210.875 69.5229 210.984L69.1951 214.869C69.1873 214.978 69.0313 215.095 68.8518 215.079Z" fill="#00BDD3"/>
<path d="M158.326 228.001L169.999 222.189L169 218.055L155.688 224.108L158.326 228.001Z" fill="#00BDD3"/>
<path opacity="0.5" d="M158.326 228.001L169.999 222.189L169 218.055L155.688 224.108L158.326 228.001Z" fill="white"/>
<path d="M176.826 232.546L168.773 234.979C168.453 235.064 168.25 235.367 168.289 235.693L169.257 242.966C169.382 243.681 170.061 244.171 170.779 244.047C170.825 244.039 170.872 244.031 170.919 244.015C184.371 241.785 188.811 239.33 190.254 238.84C194.382 237.45 192.736 234.411 191.269 234.505C184.683 234.909 182.631 234.155 180.017 232.974C178.62 232.484 177.309 232.407 176.826 232.546Z" fill="#0E1F3D"/>
<path d="M68.5466 136.668C66.1277 137.049 63.7323 135.2 62.9754 132.884C62.2186 130.569 62.8428 127.981 64.0834 125.875C64.9963 124.321 70.9811 120.638 73.2049 124.788C77.6212 133.047 68.5466 136.668 68.5466 136.668Z" fill="#0E1F3D"/>
<path d="M150.562 168.946L126.958 169.949L127.068 167.618L150.671 166.615L150.562 168.946Z" fill="#00BDD3"/>
<g opacity="0.7">
<path opacity="0.7" d="M150.562 168.946L126.958 169.949L127.068 167.618L150.671 166.615L150.562 168.946Z" fill="white"/>
</g>
<path d="M150.422 172.187L126.818 173.181L126.92 170.85L150.523 169.855L150.422 172.187Z" fill="#00BDD3"/>
<g opacity="0.7">
<path opacity="0.7" d="M150.422 172.187L126.818 173.181L126.92 170.85L150.523 169.855L150.422 172.187Z" fill="white"/>
</g>
<path d="M150.274 175.42L126.67 176.422L126.78 174.091L150.383 173.089L150.274 175.42Z" fill="#00BDD3"/>
<g opacity="0.7">
<path opacity="0.7" d="M150.274 175.42L126.67 176.422L126.78 174.091L150.383 173.089L150.274 175.42Z" fill="white"/>
</g>
<path d="M150.126 178.66L126.522 179.655L126.632 177.324L150.235 176.329L150.126 178.66Z" fill="#00BDD3"/>
<g opacity="0.7">
<path opacity="0.7" d="M150.126 178.66L126.522 179.655L126.632 177.324L150.235 176.329L150.126 178.66Z" fill="white"/>
</g>
<path d="M149.985 181.894L126.381 182.896L126.483 180.565L150.086 179.562L149.985 181.894Z" fill="#00BDD3"/>
<g opacity="0.7">
<path opacity="0.7" d="M149.985 181.894L126.381 182.896L126.483 180.565L150.086 179.562L149.985 181.894Z" fill="white"/>
</g>
<path d="M117.432 171.251L115.538 171.332L115.571 172.108L117.466 172.027L117.432 171.251Z" fill="#00BDD3"/>
<g opacity="0.5">
<path opacity="0.5" d="M117.432 171.251L115.538 171.332L115.571 172.108L117.466 172.027L117.432 171.251Z" fill="white"/>
</g>
<path d="M117.347 173.496L115.452 173.577L115.486 174.353L117.38 174.272L117.347 173.496Z" fill="#00BDD3"/>
<g opacity="0.5">
<path opacity="0.5" d="M117.347 173.496L115.452 173.577L115.486 174.353L117.38 174.272L117.347 173.496Z" fill="white"/>
</g>
<path d="M117.251 175.734L115.357 175.815L115.39 176.592L117.285 176.51L117.251 175.734Z" fill="#00BDD3"/>
<g opacity="0.5">
<path opacity="0.5" d="M117.251 175.734L115.357 175.815L115.39 176.592L117.285 176.51L117.251 175.734Z" fill="white"/>
</g>
<path d="M117.166 177.98L115.272 178.062L115.305 178.838L117.2 178.756L117.166 177.98Z" fill="#00BDD3"/>
<g opacity="0.5">
<path opacity="0.5" d="M117.166 177.98L115.272 178.062L115.305 178.838L117.2 178.756L117.166 177.98Z" fill="white"/>
</g>
<path d="M117.073 180.217L115.179 180.299L115.212 181.075L117.106 180.994L117.073 180.217Z" fill="#00BDD3"/>
<g opacity="0.5">
<path opacity="0.5" d="M115.208 181.084L115.278 180.299L117.166 180.222L117.096 180.999L115.208 181.084Z" fill="white"/>
</g>
<path d="M116.982 182.457L115.088 182.537L115.121 183.313L117.015 183.234L116.982 182.457Z" fill="#00BDD3"/>
<g opacity="0.5">
<path opacity="0.5" d="M116.982 182.457L115.088 182.537L115.121 183.313L117.015 183.234L116.982 182.457Z" fill="white"/>
</g>
<path d="M119.397 169.11L115.48 170.563L115.519 169.538L117.689 169.188L115.543 169.04L115.582 168.015L119.397 169.11Z" fill="#00BDD3"/>
<path d="M143.313 165.403L126.958 166.095L127.037 164.479L143.391 163.787L143.313 165.403Z" fill="#00BDD3"/>
<g opacity="0.7">
<path opacity="0.7" d="M143.313 165.403L126.958 166.095L127.037 164.479L143.391 163.787L143.313 165.403Z" fill="white"/>
</g>
<path d="M121.247 166.243L118.852 166.344L119.819 165.73L120.084 165.979L120.373 165.723L121.247 166.243Z" fill="#00BDD3"/>
<path d="M119.725 165.66L118.758 166.273L118.828 164.852L119.725 165.66Z" fill="#00BDD3"/>
<path d="M121.403 164.805L121.325 166.157L120.443 165.644L121.403 164.805Z" fill="#00BDD3"/>
<path d="M120.118 165.399L120.064 165.455L120.07 165.46L120.124 165.404L120.118 165.399Z" fill="white"/>
<path d="M120.072 165.421L120.066 165.427L120.119 165.483L120.125 165.478L120.072 165.421Z" fill="white"/>
<path d="M121.402 164.673L120.372 165.605L120.083 165.854L119.818 165.613L118.921 164.805L118.851 164.735L121.402 164.673Z" fill="#00BDD3"/>
<path d="M117.44 164.921L115.546 165.002L115.556 165.235L117.45 165.154L117.44 164.921Z" fill="#00BDD3"/>
<path d="M117.442 165.511L115.548 165.592L115.558 165.825L117.452 165.744L117.442 165.511Z" fill="#00BDD3"/>
<path d="M117.44 166.111L115.546 166.191L115.556 166.424L117.45 166.344L117.44 166.111Z" fill="#00BDD3"/>
<path d="M227.365 48.0795H215.997C214.967 48.0795 214.132 47.248 214.132 46.2223C214.132 45.1967 214.967 44.3652 215.997 44.3652H227.365C228.395 44.3652 229.23 45.1967 229.23 46.2223C229.23 47.248 228.395 48.0795 227.365 48.0795Z" fill="#00BDD3"/>
<g opacity="0.7">
<path opacity="0.7" d="M227.365 48.0795H215.997C214.967 48.0795 214.132 47.248 214.132 46.2223C214.132 45.1967 214.967 44.3652 215.997 44.3652H227.365C228.395 44.3652 229.23 45.1967 229.23 46.2223C229.23 47.248 228.395 48.0795 227.365 48.0795Z" fill="white"/>
</g>
<path d="M269.072 86.2381L225.485 166.117C224.923 167.143 223.628 167.524 222.598 166.964L148.433 126.83C147.403 126.271 147.021 124.981 147.582 123.955L204.269 20.0581C204.831 19.0325 206.127 18.6517 207.157 19.2112L257.133 46.252L269.072 86.2381Z" fill="#00BDD3"/>
<g opacity="0.2">
<path opacity="0.2" d="M269.072 86.2381L225.485 166.117C224.923 167.143 223.628 167.524 222.598 166.964L148.433 126.83C147.403 126.271 147.021 124.981 147.582 123.955L204.269 20.0581C204.831 19.0325 206.127 18.6517 207.157 19.2112L257.133 46.252L269.072 86.2381Z" fill="white"/>
</g>
<path d="M244.619 104.167L189.228 74.4082L187.375 77.8275L242.766 107.586L244.619 104.167Z" fill="#00BDD3"/>
<path d="M237.049 118.137L181.658 88.3789L179.806 91.7982L235.197 121.557L237.049 118.137Z" fill="#00BDD3"/>
<path d="M229.482 132.109L174.091 102.351L172.239 105.77L227.63 135.528L229.482 132.109Z" fill="#00BDD3"/>
<path d="M257.196 46.2207L244.056 70.3165C243.494 71.3422 243.877 72.6321 244.907 73.1916L269.025 86.2457L257.196 46.2207Z" fill="#00BDD3"/>
<path opacity="0.7" d="M257.196 46.2207L244.056 70.3165C243.494 71.3422 243.877 72.6321 244.907 73.1916L269.025 86.2457L257.196 46.2207Z" fill="white"/>
<path d="M280.432 83.5497L236.846 163.429C236.284 164.454 234.989 164.835 233.959 164.276L159.793 124.142C158.763 123.582 158.381 122.293 158.943 121.267L215.63 17.3697C216.192 16.344 217.487 15.9632 218.517 16.5227L268.494 43.5635L280.432 83.5497Z" fill="#00BDD3"/>
<g opacity="0.5">
<path opacity="0.5" d="M280.432 83.5497L236.846 163.429C236.284 164.454 234.989 164.835 233.959 164.276L159.793 124.142C158.763 123.582 158.381 122.293 158.943 121.267L215.63 17.3697C216.192 16.344 217.487 15.9632 218.517 16.5227L268.494 43.5635L280.432 83.5497Z" fill="white"/>
</g>
<path d="M254.504 100.684L202.069 72.5162C201.25 72.081 200.235 72.3841 199.791 73.1922L199.533 73.6662C199.096 74.4821 199.4 75.4922 200.212 75.9351L252.647 104.103C253.466 104.538 254.48 104.235 254.925 103.427L255.182 102.953C255.627 102.137 255.323 101.119 254.504 100.684Z" fill="#00BDD3"/>
<path d="M246.935 114.654L194.5 86.4869C193.681 86.0518 192.667 86.3548 192.222 87.1629L191.964 87.6369C191.527 88.4528 191.832 89.4629 192.643 89.9058L245.078 118.073C245.897 118.508 246.911 118.205 247.356 117.397L247.614 116.923C248.058 116.107 247.754 115.097 246.935 114.654Z" fill="#00BDD3"/>
<path d="M239.366 128.626L186.932 100.459C186.113 100.023 185.098 100.326 184.653 101.135L184.396 101.609C183.959 102.424 184.263 103.435 185.075 103.878L237.509 132.045C238.329 132.48 239.343 132.177 239.788 131.369L240.045 130.895C240.49 130.079 240.186 129.069 239.366 128.626Z" fill="#00BDD3"/>
<path d="M268.565 43.5322L255.417 67.628C254.855 68.6537 255.237 69.9436 256.267 70.5031L280.386 83.5572L268.565 43.5322Z" fill="#00BDD3"/>
<path opacity="0.7" d="M268.565 43.5322L255.417 67.628C254.855 68.6537 255.237 69.9436 256.267 70.5031L280.386 83.5572L268.565 43.5322Z" fill="white"/>
<path d="M265.552 6.91113L269.219 23.1278C255.331 26.9275 242.869 40.6111 233.904 53.5487C230.369 58.6538 227.373 64.5826 225.134 70.8533C225.134 70.8533 253.138 45.623 268.58 44.1466L267.846 70.9543C267.846 70.9543 283.857 39.8962 314.959 28.5282C314.951 28.5204 288.906 9.84055 265.552 6.91113Z" fill="#F4E041"/>
<path d="M76.6169 184.083L83.6941 264.638H72.2864L64.6709 177.952H69.8988C73.4022 177.952 76.3126 180.61 76.6169 184.083Z" fill="#00BDD3"/>
<path opacity="0.2" d="M76.6862 184.806L83.7009 264.638H72.2932L64.6777 177.952H69.1721C73.0813 177.952 76.3429 180.928 76.6862 184.806Z" fill="black"/>
<path d="M69.2037 183.197L76.3588 264.638H8.44346L1.37415 184.2C1.07764 180.843 3.73839 177.952 7.12479 177.952H63.4452C66.4493 177.952 68.9462 180.229 69.2037 183.197Z" fill="#00BDD3"/>
<path opacity="0.2" d="M69.2803 184.083L76.3574 264.638H8.44207L1.46639 185.256C1.12307 181.332 4.22857 177.952 8.18458 177.952H62.5543C66.0577 177.952 68.976 180.61 69.2803 184.083Z" fill="white"/>
<path d="M188.727 264.638H8.75635L6.79785 242.298H179.559C183.546 242.298 187.057 245.515 187.401 249.485L188.727 264.638Z" fill="#00BDD3"/>
<path opacity="0.2" d="M188.727 264.638H8.75635L6.79785 242.298H179.559C183.546 242.298 187.057 245.515 187.401 249.485L188.727 264.638Z" fill="white"/>
<path d="M196.982 273.194H6.64091C4.17524 273.194 2.16992 271.205 2.16992 268.741C2.16992 266.286 4.16743 264.289 6.64091 264.289H196.982C199.447 264.289 201.453 266.278 201.453 268.741C201.453 271.197 199.447 273.194 196.982 273.194Z" fill="#00BDD3"/>
<path opacity="0.2" d="M196.982 273.194H86.4871C84.0214 273.194 82.0161 271.205 82.0161 268.741C82.0161 266.286 84.0136 264.289 86.4871 264.289H196.982C199.448 264.289 201.453 266.278 201.453 268.741C201.453 271.197 199.448 273.194 196.982 273.194Z" fill="black"/>
<path d="M9.13867 273.193L11.3937 280.839H15.9037L18.385 273.193H9.13867Z" fill="#263238"/>
<path opacity="0.5" d="M9.13867 273.193L11.3937 280.839H15.9037L18.385 273.193H9.13867Z" fill="white"/>
<path d="M73.7686 273.193L76.0236 280.839H80.5336L83.0148 273.193H73.7686Z" fill="#263238"/>
<path opacity="0.5" d="M73.7686 273.193L76.0236 280.839H80.5336L83.0148 273.193H73.7686Z" fill="white"/>
<path d="M123.239 273.193L125.494 280.839H130.004L132.485 273.193H123.239Z" fill="#263238"/>
<path opacity="0.5" d="M123.239 273.193L125.494 280.839H130.004L132.485 273.193H123.239Z" fill="white"/>
<path d="M187.869 273.193L190.124 280.839H194.634L197.115 273.193H187.869Z" fill="#263238"/>
<path opacity="0.5" d="M187.869 273.193L190.124 280.839H194.634L197.115 273.193H187.869Z" fill="white"/>
<path d="M261.432 150.254C261.432 167.469 247.468 181.425 230.242 181.425C213.017 181.425 199.053 167.469 199.053 150.254C199.053 133.038 213.017 119.082 230.242 119.082C247.468 119.082 261.432 133.038 261.432 150.254Z" fill="#EA5924"/>
<path d="M226.212 156.734L221.102 151.626C220.532 151.057 219.627 151.057 219.057 151.626C218.488 152.195 218.488 153.1 219.057 153.669L225.176 159.784C225.745 160.353 226.665 160.353 227.235 159.784L242.713 144.329C243.282 143.76 243.282 142.855 242.713 142.286C242.143 141.717 241.238 141.717 240.668 142.286L226.212 156.734Z" fill="white"/>
</svg>
